<?xml version="1.0" encoding="iso-8859-1"?>
<!-- Generator: Adobe Illustrator 16.0.0, SVG Export Plug-In . SVG Version: 6.00 Build 0)  -->
<!DOCTYPE svg PUBLIC "-//W3C//DTD SVG 1.1//EN" "http://www.w3.org/Graphics/SVG/1.1/DTD/svg11.dtd">
<svg xmlns="http://www.w3.org/2000/svg" xmlns:xlink="http://www.w3.org/1999/xlink" version="1.1" id="Capa_1" x="0px" y="0px" width="512px" height="512px" viewBox="0 0 366.541 366.541" style="enable-background:new 0 0 366.541 366.541;" xml:space="preserve">
<g>
	<path d="M276.326,281.088c-34.094,31.748-68.867,56.577-82.234,65.779c-3.259,2.243-7.043,3.365-10.824,3.365   c-3.782,0-7.563-1.122-10.821-3.364c-13.299-9.149-47.903-33.852-81.964-65.532C30.443,225.494,0,175.292,0,132.126   C0,68.265,51.956,16.309,115.817,16.309c24.488,0,47.704,7.485,67.453,21.695c19.75-14.21,42.964-21.695,67.455-21.695   c63.859,0,115.816,51.956,115.816,115.818C366.541,175.225,336.188,225.342,276.326,281.088z" fill="#FFFFFF"/>
</g>
<g>
</g>
<g>
</g>
<g>
</g>
<g>
</g>
<g>
</g>
<g>
</g>
<g>
</g>
<g>
</g>
<g>
</g>
<g>
</g>
<g>
</g>
<g>
</g>
<g>
</g>
<g>
</g>
<g>
</g>
</svg>
