<?xml version="1.0" encoding="iso-8859-1"?>
<!-- Generator: Adobe Illustrator 19.0.0, SVG Export Plug-In . SVG Version: 6.00 Build 0)  -->
<svg xmlns="http://www.w3.org/2000/svg" xmlns:xlink="http://www.w3.org/1999/xlink" version="1.1" id="Capa_1" x="0px" y="0px" viewBox="0 0 220.862 220.862" style="enable-background:new 0 0 220.862 220.862;" xml:space="preserve" width="512px" height="512px">
<path d="M128.087,99.964l4.83-7.633l-32.573,0.175L117.743,0L36.255,123.539l32.604-0.173l-17.268,97.496l19.972-31.566  c10.295,18.544,30.076,31.127,52.747,31.127c33.247,0,60.295-27.048,60.295-60.295C184.607,128.151,159.581,101.921,128.087,99.964z   M94.579,165.922c-0.365-1.876-0.562-3.812-0.562-5.793c0-16.705,13.59-30.295,30.295-30.295c1.982,0,3.917,0.197,5.793,0.562  L94.579,165.922z M124.312,190.424c-3.533,0-6.923-0.614-10.078-1.73l38.643-38.643c1.116,3.155,1.73,6.546,1.73,10.078  C154.607,176.834,141.017,190.424,124.312,190.424z" fill="#FFFFFF"/>
<g>
</g>
<g>
</g>
<g>
</g>
<g>
</g>
<g>
</g>
<g>
</g>
<g>
</g>
<g>
</g>
<g>
</g>
<g>
</g>
<g>
</g>
<g>
</g>
<g>
</g>
<g>
</g>
<g>
</g>
</svg>
